<mxfile host="app.diagrams.net" agent="Mozilla/5.0 (Windows NT 10.0; Win64; x64) AppleWebKit/537.36 (KHTML, like Gecko) Chrome/134.0.0.0 Safari/537.36 Edg/134.0.0.0" version="26.0.16">
  <diagram name="Page-1" id="5xIqHKWc1ZSigfhbw6bG">
    <mxGraphModel dx="1339" dy="1497" grid="0" gridSize="10" guides="1" tooltips="1" connect="1" arrows="1" fold="1" page="0" pageScale="1" pageWidth="850" pageHeight="1100" math="0" shadow="0">
      <root>
        <mxCell id="0" />
        <mxCell id="1" parent="0" />
        <mxCell id="erT3RZfzkOFj9QoUBPdU-1" value="" style="swimlane;startSize=0;labelBackgroundColor=none;fillColor=#A8DADC;strokeColor=#457B9D;fontColor=#1D3557;sketch=1;curveFitting=1;jiggle=2;" vertex="1" parent="1">
          <mxGeometry x="-300" y="-80" width="293" height="361" as="geometry" />
        </mxCell>
        <mxCell id="erT3RZfzkOFj9QoUBPdU-4" value="" style="rhombus;whiteSpace=wrap;html=1;labelBackgroundColor=none;fillColor=#A8DADC;strokeColor=#457B9D;fontColor=#1D3557;sketch=1;curveFitting=1;jiggle=2;" vertex="1" parent="erT3RZfzkOFj9QoUBPdU-1">
          <mxGeometry y="207" width="97" height="100" as="geometry" />
        </mxCell>
        <mxCell id="erT3RZfzkOFj9QoUBPdU-8" value="" style="rounded=1;whiteSpace=wrap;html=1;labelBackgroundColor=none;fillColor=#A8DADC;strokeColor=#457B9D;fontColor=#1D3557;sketch=1;curveFitting=1;jiggle=2;" vertex="1" parent="erT3RZfzkOFj9QoUBPdU-1">
          <mxGeometry x="24" y="75" width="104" height="69" as="geometry" />
        </mxCell>
        <mxCell id="erT3RZfzkOFj9QoUBPdU-11" value="Fase I: Entrada de Datos" style="text;html=1;align=center;verticalAlign=middle;whiteSpace=wrap;rounded=0;labelBackgroundColor=none;fontColor=#1D3557;sketch=1;curveFitting=1;jiggle=2;" vertex="1" parent="erT3RZfzkOFj9QoUBPdU-1">
          <mxGeometry x="65.5" y="331" width="162" height="30" as="geometry" />
        </mxCell>
        <mxCell id="erT3RZfzkOFj9QoUBPdU-14" value="simulate_data.R" style="text;html=1;align=center;verticalAlign=middle;whiteSpace=wrap;rounded=0;labelBackgroundColor=none;fontColor=#1D3557;sketch=1;curveFitting=1;jiggle=2;" vertex="1" parent="erT3RZfzkOFj9QoUBPdU-1">
          <mxGeometry x="18.5" y="242" width="60" height="30" as="geometry" />
        </mxCell>
        <mxCell id="erT3RZfzkOFj9QoUBPdU-18" value="" style="endArrow=classic;html=1;rounded=0;fontSize=12;startSize=8;endSize=8;curved=1;entryX=0.25;entryY=1;entryDx=0;entryDy=0;exitX=0.5;exitY=0;exitDx=0;exitDy=0;labelBackgroundColor=none;strokeColor=#457B9D;fontColor=default;sketch=1;curveFitting=1;jiggle=2;" edge="1" parent="erT3RZfzkOFj9QoUBPdU-1" source="erT3RZfzkOFj9QoUBPdU-4" target="erT3RZfzkOFj9QoUBPdU-8">
          <mxGeometry width="50" height="50" relative="1" as="geometry">
            <mxPoint x="326" y="201" as="sourcePoint" />
            <mxPoint x="376" y="151" as="targetPoint" />
          </mxGeometry>
        </mxCell>
        <mxCell id="erT3RZfzkOFj9QoUBPdU-22" value="Simulación de datos" style="text;html=1;align=center;verticalAlign=middle;whiteSpace=wrap;rounded=0;labelBackgroundColor=none;fontColor=#1D3557;sketch=1;curveFitting=1;jiggle=2;" vertex="1" parent="erT3RZfzkOFj9QoUBPdU-1">
          <mxGeometry x="26.5" y="94.5" width="99" height="30" as="geometry" />
        </mxCell>
        <mxCell id="erT3RZfzkOFj9QoUBPdU-23" value="" style="rounded=1;whiteSpace=wrap;html=1;labelBackgroundColor=none;fillColor=#A8DADC;strokeColor=#457B9D;fontColor=#1D3557;sketch=1;curveFitting=1;jiggle=2;" vertex="1" parent="erT3RZfzkOFj9QoUBPdU-1">
          <mxGeometry x="174" y="88" width="93" height="45" as="geometry" />
        </mxCell>
        <mxCell id="erT3RZfzkOFj9QoUBPdU-24" value="raw_data.csv" style="text;html=1;align=center;verticalAlign=middle;whiteSpace=wrap;rounded=0;labelBackgroundColor=none;fontColor=#1D3557;sketch=1;curveFitting=1;jiggle=2;" vertex="1" parent="erT3RZfzkOFj9QoUBPdU-1">
          <mxGeometry x="192" y="94.5" width="60" height="30" as="geometry" />
        </mxCell>
        <mxCell id="erT3RZfzkOFj9QoUBPdU-25" value="" style="endArrow=classic;html=1;rounded=0;fontSize=12;startSize=8;endSize=8;curved=1;exitX=1;exitY=0.5;exitDx=0;exitDy=0;entryX=0;entryY=0.5;entryDx=0;entryDy=0;labelBackgroundColor=none;strokeColor=#457B9D;fontColor=default;sketch=1;curveFitting=1;jiggle=2;" edge="1" parent="erT3RZfzkOFj9QoUBPdU-1" source="erT3RZfzkOFj9QoUBPdU-8" target="erT3RZfzkOFj9QoUBPdU-23">
          <mxGeometry width="50" height="50" relative="1" as="geometry">
            <mxPoint x="407" y="303" as="sourcePoint" />
            <mxPoint x="457" y="253" as="targetPoint" />
          </mxGeometry>
        </mxCell>
        <mxCell id="erT3RZfzkOFj9QoUBPdU-2" value="" style="swimlane;startSize=0;labelBackgroundColor=none;fillColor=#A8DADC;strokeColor=#457B9D;fontColor=#1D3557;sketch=1;curveFitting=1;jiggle=2;" vertex="1" parent="1">
          <mxGeometry x="41" y="-80" width="388" height="360" as="geometry" />
        </mxCell>
        <mxCell id="erT3RZfzkOFj9QoUBPdU-5" value="" style="rhombus;whiteSpace=wrap;html=1;labelBackgroundColor=none;fillColor=#A8DADC;strokeColor=#457B9D;fontColor=#1D3557;sketch=1;curveFitting=1;jiggle=2;" vertex="1" parent="erT3RZfzkOFj9QoUBPdU-2">
          <mxGeometry x="128" y="198.5" width="129" height="116" as="geometry" />
        </mxCell>
        <mxCell id="erT3RZfzkOFj9QoUBPdU-9" value="" style="rounded=1;whiteSpace=wrap;html=1;labelBackgroundColor=none;fillColor=#A8DADC;strokeColor=#457B9D;fontColor=#1D3557;sketch=1;curveFitting=1;jiggle=2;" vertex="1" parent="erT3RZfzkOFj9QoUBPdU-2">
          <mxGeometry x="120" y="79" width="135" height="60" as="geometry" />
        </mxCell>
        <mxCell id="erT3RZfzkOFj9QoUBPdU-12" value="Fase II: Limpieza de Datos" style="text;html=1;align=center;verticalAlign=middle;whiteSpace=wrap;rounded=0;labelBackgroundColor=none;fontColor=#1D3557;sketch=1;curveFitting=1;jiggle=2;" vertex="1" parent="erT3RZfzkOFj9QoUBPdU-2">
          <mxGeometry x="118.5" y="327" width="162" height="30" as="geometry" />
        </mxCell>
        <mxCell id="erT3RZfzkOFj9QoUBPdU-15" value="02_limpieza_datos.R" style="text;html=1;align=center;verticalAlign=middle;whiteSpace=wrap;rounded=0;labelBackgroundColor=none;fontColor=#1D3557;sketch=1;curveFitting=1;jiggle=2;" vertex="1" parent="erT3RZfzkOFj9QoUBPdU-2">
          <mxGeometry x="162.5" y="245" width="60" height="30" as="geometry" />
        </mxCell>
        <mxCell id="erT3RZfzkOFj9QoUBPdU-19" value="" style="endArrow=classic;html=1;rounded=0;fontSize=12;startSize=8;endSize=8;curved=1;entryX=0.5;entryY=1;entryDx=0;entryDy=0;exitX=0.5;exitY=0;exitDx=0;exitDy=0;labelBackgroundColor=none;strokeColor=#457B9D;fontColor=default;sketch=1;curveFitting=1;jiggle=2;" edge="1" parent="erT3RZfzkOFj9QoUBPdU-2" source="erT3RZfzkOFj9QoUBPdU-5">
          <mxGeometry width="50" height="50" relative="1" as="geometry">
            <mxPoint x="183" y="205" as="sourcePoint" />
            <mxPoint x="193" y="142.5" as="targetPoint" />
          </mxGeometry>
        </mxCell>
        <mxCell id="erT3RZfzkOFj9QoUBPdU-28" value="Limpieza y procesamiento de datos" style="text;html=1;align=center;verticalAlign=middle;whiteSpace=wrap;rounded=0;labelBackgroundColor=none;fontColor=#1D3557;sketch=1;curveFitting=1;jiggle=2;" vertex="1" parent="erT3RZfzkOFj9QoUBPdU-2">
          <mxGeometry x="143.5" y="97.5" width="99" height="30" as="geometry" />
        </mxCell>
        <mxCell id="erT3RZfzkOFj9QoUBPdU-33" value="" style="rounded=1;whiteSpace=wrap;html=1;labelBackgroundColor=none;fillColor=#A8DADC;strokeColor=#457B9D;fontColor=#1D3557;sketch=1;curveFitting=1;jiggle=2;" vertex="1" parent="erT3RZfzkOFj9QoUBPdU-2">
          <mxGeometry x="282" y="90" width="97" height="45" as="geometry" />
        </mxCell>
        <mxCell id="erT3RZfzkOFj9QoUBPdU-34" value="" style="endArrow=classic;html=1;rounded=0;fontSize=12;startSize=8;endSize=8;curved=1;exitX=1;exitY=0.5;exitDx=0;exitDy=0;labelBackgroundColor=none;strokeColor=#457B9D;fontColor=default;sketch=1;curveFitting=1;jiggle=2;" edge="1" parent="erT3RZfzkOFj9QoUBPdU-2" target="erT3RZfzkOFj9QoUBPdU-33">
          <mxGeometry width="50" height="50" relative="1" as="geometry">
            <mxPoint x="260.5" y="112.5" as="sourcePoint" />
            <mxPoint x="450" y="113" as="targetPoint" />
          </mxGeometry>
        </mxCell>
        <mxCell id="erT3RZfzkOFj9QoUBPdU-35" value="cleaned_data.csv" style="text;html=1;align=center;verticalAlign=middle;whiteSpace=wrap;rounded=0;labelBackgroundColor=none;fontColor=#1D3557;sketch=1;curveFitting=1;jiggle=2;" vertex="1" parent="erT3RZfzkOFj9QoUBPdU-2">
          <mxGeometry x="300.5" y="97.5" width="60" height="30" as="geometry" />
        </mxCell>
        <mxCell id="erT3RZfzkOFj9QoUBPdU-38" value="Definición de directorios principales" style="rounded=1;whiteSpace=wrap;html=1;labelBackgroundColor=none;fillColor=#A8DADC;strokeColor=#457B9D;fontColor=#1D3557;sketch=1;curveFitting=1;jiggle=2;" vertex="1" parent="erT3RZfzkOFj9QoUBPdU-2">
          <mxGeometry x="12" y="79" width="89" height="60" as="geometry" />
        </mxCell>
        <mxCell id="erT3RZfzkOFj9QoUBPdU-40" value="" style="endArrow=classic;html=1;rounded=0;fontSize=12;startSize=8;endSize=8;curved=1;entryX=0;entryY=0.5;entryDx=0;entryDy=0;exitX=1;exitY=0.5;exitDx=0;exitDy=0;labelBackgroundColor=none;strokeColor=#457B9D;fontColor=default;sketch=1;curveFitting=1;jiggle=2;" edge="1" parent="erT3RZfzkOFj9QoUBPdU-2" source="erT3RZfzkOFj9QoUBPdU-38" target="erT3RZfzkOFj9QoUBPdU-9">
          <mxGeometry width="50" height="50" relative="1" as="geometry">
            <mxPoint x="-26" y="302" as="sourcePoint" />
            <mxPoint x="24" y="252" as="targetPoint" />
          </mxGeometry>
        </mxCell>
        <mxCell id="erT3RZfzkOFj9QoUBPdU-41" value="" style="rhombus;whiteSpace=wrap;html=1;labelBackgroundColor=none;fillColor=#A8DADC;strokeColor=#457B9D;fontColor=#1D3557;sketch=1;curveFitting=1;jiggle=2;" vertex="1" parent="erT3RZfzkOFj9QoUBPdU-2">
          <mxGeometry x="8" y="201" width="97" height="100" as="geometry" />
        </mxCell>
        <mxCell id="erT3RZfzkOFj9QoUBPdU-43" value="" style="endArrow=classic;html=1;rounded=0;fontSize=12;startSize=8;endSize=8;curved=1;entryX=0.5;entryY=1;entryDx=0;entryDy=0;labelBackgroundColor=none;strokeColor=#457B9D;fontColor=default;sketch=1;curveFitting=1;jiggle=2;" edge="1" parent="erT3RZfzkOFj9QoUBPdU-2" source="erT3RZfzkOFj9QoUBPdU-41" target="erT3RZfzkOFj9QoUBPdU-38">
          <mxGeometry width="50" height="50" relative="1" as="geometry">
            <mxPoint x="-26" y="302" as="sourcePoint" />
            <mxPoint x="24" y="252" as="targetPoint" />
          </mxGeometry>
        </mxCell>
        <mxCell id="erT3RZfzkOFj9QoUBPdU-44" value="01_directorios.R" style="text;html=1;align=center;verticalAlign=middle;whiteSpace=wrap;rounded=0;labelBackgroundColor=none;fontColor=#1D3557;sketch=1;curveFitting=1;jiggle=2;" vertex="1" parent="erT3RZfzkOFj9QoUBPdU-2">
          <mxGeometry x="26.5" y="236" width="60" height="30" as="geometry" />
        </mxCell>
        <mxCell id="erT3RZfzkOFj9QoUBPdU-3" value="" style="swimlane;startSize=0;labelBackgroundColor=none;fillColor=#A8DADC;strokeColor=#457B9D;fontColor=#1D3557;sketch=1;curveFitting=1;jiggle=2;" vertex="1" parent="1">
          <mxGeometry x="471" y="-81" width="341" height="361" as="geometry" />
        </mxCell>
        <mxCell id="erT3RZfzkOFj9QoUBPdU-6" value="" style="rhombus;whiteSpace=wrap;html=1;labelBackgroundColor=none;fillColor=#A8DADC;strokeColor=#457B9D;fontColor=#1D3557;sketch=1;curveFitting=1;jiggle=2;" vertex="1" parent="erT3RZfzkOFj9QoUBPdU-3">
          <mxGeometry x="12" y="194" width="118" height="117" as="geometry" />
        </mxCell>
        <mxCell id="erT3RZfzkOFj9QoUBPdU-7" value="" style="rhombus;whiteSpace=wrap;html=1;labelBackgroundColor=none;fillColor=#A8DADC;strokeColor=#457B9D;fontColor=#1D3557;sketch=1;curveFitting=1;jiggle=2;" vertex="1" parent="erT3RZfzkOFj9QoUBPdU-3">
          <mxGeometry x="182" y="197" width="119" height="116" as="geometry" />
        </mxCell>
        <mxCell id="erT3RZfzkOFj9QoUBPdU-10" value="" style="rounded=1;whiteSpace=wrap;html=1;labelBackgroundColor=none;fillColor=#A8DADC;strokeColor=#457B9D;fontColor=#1D3557;sketch=1;curveFitting=1;jiggle=2;" vertex="1" parent="erT3RZfzkOFj9QoUBPdU-3">
          <mxGeometry x="11" y="79.5" width="120" height="60" as="geometry" />
        </mxCell>
        <mxCell id="erT3RZfzkOFj9QoUBPdU-13" value="Fase III: Análisis de Datos" style="text;html=1;align=center;verticalAlign=middle;whiteSpace=wrap;rounded=0;labelBackgroundColor=none;fontColor=#1D3557;sketch=1;curveFitting=1;jiggle=2;" vertex="1" parent="erT3RZfzkOFj9QoUBPdU-3">
          <mxGeometry x="115" y="331" width="162" height="30" as="geometry" />
        </mxCell>
        <mxCell id="erT3RZfzkOFj9QoUBPdU-16" value="03_analisis_visualizacion.R" style="text;html=1;align=center;verticalAlign=middle;whiteSpace=wrap;rounded=0;labelBackgroundColor=none;fontColor=#1D3557;sketch=1;curveFitting=1;jiggle=2;" vertex="1" parent="erT3RZfzkOFj9QoUBPdU-3">
          <mxGeometry x="46" y="230.75" width="55" height="44.5" as="geometry" />
        </mxCell>
        <mxCell id="erT3RZfzkOFj9QoUBPdU-17" value="04_modelacion_regresiones.R" style="text;html=1;align=center;verticalAlign=middle;whiteSpace=wrap;rounded=0;labelBackgroundColor=none;fontColor=#1D3557;sketch=1;curveFitting=1;jiggle=2;" vertex="1" parent="erT3RZfzkOFj9QoUBPdU-3">
          <mxGeometry x="211.5" y="240" width="60" height="30" as="geometry" />
        </mxCell>
        <mxCell id="erT3RZfzkOFj9QoUBPdU-20" value="" style="endArrow=classic;html=1;rounded=0;fontSize=12;startSize=8;endSize=8;curved=1;entryX=0.5;entryY=1;entryDx=0;entryDy=0;exitX=0.5;exitY=0;exitDx=0;exitDy=0;labelBackgroundColor=none;strokeColor=#457B9D;fontColor=default;sketch=1;curveFitting=1;jiggle=2;" edge="1" parent="erT3RZfzkOFj9QoUBPdU-3" source="erT3RZfzkOFj9QoUBPdU-6" target="erT3RZfzkOFj9QoUBPdU-10">
          <mxGeometry width="50" height="50" relative="1" as="geometry">
            <mxPoint x="-156" y="201" as="sourcePoint" />
            <mxPoint x="-106" y="151" as="targetPoint" />
          </mxGeometry>
        </mxCell>
        <mxCell id="erT3RZfzkOFj9QoUBPdU-21" value="" style="endArrow=classic;html=1;rounded=0;fontSize=12;startSize=8;endSize=8;curved=1;entryX=0.5;entryY=1;entryDx=0;entryDy=0;exitX=0.5;exitY=0;exitDx=0;exitDy=0;labelBackgroundColor=none;strokeColor=#457B9D;fontColor=default;sketch=1;curveFitting=1;jiggle=2;" edge="1" parent="erT3RZfzkOFj9QoUBPdU-3" source="erT3RZfzkOFj9QoUBPdU-7" target="erT3RZfzkOFj9QoUBPdU-29">
          <mxGeometry width="50" height="50" relative="1" as="geometry">
            <mxPoint x="-156" y="201" as="sourcePoint" />
            <mxPoint x="-106" y="151" as="targetPoint" />
          </mxGeometry>
        </mxCell>
        <mxCell id="erT3RZfzkOFj9QoUBPdU-29" value="" style="rounded=1;whiteSpace=wrap;html=1;labelBackgroundColor=none;fillColor=#A8DADC;strokeColor=#457B9D;fontColor=#1D3557;sketch=1;curveFitting=1;jiggle=2;" vertex="1" parent="erT3RZfzkOFj9QoUBPdU-3">
          <mxGeometry x="181" y="79.5" width="120" height="60" as="geometry" />
        </mxCell>
        <mxCell id="erT3RZfzkOFj9QoUBPdU-31" value="" style="endArrow=classic;html=1;rounded=0;fontSize=12;startSize=8;endSize=8;curved=1;exitX=1;exitY=0.5;exitDx=0;exitDy=0;entryX=0;entryY=0.5;entryDx=0;entryDy=0;labelBackgroundColor=none;strokeColor=#457B9D;fontColor=default;sketch=1;curveFitting=1;jiggle=2;" edge="1" parent="erT3RZfzkOFj9QoUBPdU-3" source="erT3RZfzkOFj9QoUBPdU-10" target="erT3RZfzkOFj9QoUBPdU-29">
          <mxGeometry width="50" height="50" relative="1" as="geometry">
            <mxPoint x="-140" y="303" as="sourcePoint" />
            <mxPoint x="-90" y="253" as="targetPoint" />
          </mxGeometry>
        </mxCell>
        <mxCell id="erT3RZfzkOFj9QoUBPdU-36" value="Análisis exploratorio y visualización" style="text;html=1;align=center;verticalAlign=middle;whiteSpace=wrap;rounded=0;labelBackgroundColor=none;fontColor=#1D3557;sketch=1;curveFitting=1;jiggle=2;" vertex="1" parent="erT3RZfzkOFj9QoUBPdU-3">
          <mxGeometry x="21.5" y="94.5" width="99" height="30" as="geometry" />
        </mxCell>
        <mxCell id="erT3RZfzkOFj9QoUBPdU-37" value="Modelado y regresión" style="text;html=1;align=center;verticalAlign=middle;whiteSpace=wrap;rounded=0;labelBackgroundColor=none;fontColor=#1D3557;sketch=1;curveFitting=1;jiggle=2;" vertex="1" parent="erT3RZfzkOFj9QoUBPdU-3">
          <mxGeometry x="192" y="97" width="99" height="30" as="geometry" />
        </mxCell>
        <mxCell id="erT3RZfzkOFj9QoUBPdU-27" value="" style="endArrow=classic;html=1;rounded=0;fontSize=12;startSize=8;endSize=8;curved=1;exitX=1;exitY=0.5;exitDx=0;exitDy=0;entryX=0;entryY=0.5;entryDx=0;entryDy=0;labelBackgroundColor=none;strokeColor=#457B9D;fontColor=default;sketch=1;curveFitting=1;jiggle=2;" edge="1" parent="1" source="erT3RZfzkOFj9QoUBPdU-23" target="erT3RZfzkOFj9QoUBPdU-38">
          <mxGeometry width="50" height="50" relative="1" as="geometry">
            <mxPoint x="217" y="222" as="sourcePoint" />
            <mxPoint x="32" y="29" as="targetPoint" />
          </mxGeometry>
        </mxCell>
        <mxCell id="erT3RZfzkOFj9QoUBPdU-30" value="" style="endArrow=classic;html=1;rounded=0;fontSize=12;startSize=8;endSize=8;curved=1;exitX=1;exitY=0.5;exitDx=0;exitDy=0;labelBackgroundColor=none;strokeColor=#457B9D;fontColor=default;sketch=1;curveFitting=1;jiggle=2;" edge="1" parent="1" source="erT3RZfzkOFj9QoUBPdU-33" target="erT3RZfzkOFj9QoUBPdU-10">
          <mxGeometry width="50" height="50" relative="1" as="geometry">
            <mxPoint x="349" y="222" as="sourcePoint" />
            <mxPoint x="399" y="172" as="targetPoint" />
          </mxGeometry>
        </mxCell>
      </root>
    </mxGraphModel>
  </diagram>
</mxfile>
